#define test2_width 8
#define test2_height 7
static char test2_bits[] = {
 0x6e,0x2b,0x11,0x11,0x11,0xab,0x66};
