#define test2_width 5
#define test2_height 7
static char test2_bits[] = {
 0x06,0x05,0x04,0x04,0x04,0x14,0x0c};
