#define test2_width 8
#define test2_height 10
static char test2_bits[] = {
 0x06,0x0a,0x08,0x08,0x14,0x14,0x12,0x22,0xa1,0xc1};
