#define test2_width 7
#define test2_height 9
static char test2_bits[] = {
 0x11,0x11,0x11,0x11,0x11,0x59,0x6f,0x01,0x03};
