#define test2_width 9
#define test2_height 7
static char test2_bits[] = {
 0xc6,0x00,0x11,0x01,0x11,0x01,0x11,0x01,0x11,0x01,0x93,0x01,0xee,0x00};
