#define test2_width 8
#define test2_height 7
static char test2_bits[] = {
 0x7e,0x25,0x24,0x24,0x24,0xa4,0x66};
